HIERARCHY
ROOT root
{
	OFFSET 0.000000 0.000000 0.000000
	CHANNELS 6 Xposition Yposition Zposition Zrotation Yrotation Xrotation
	JOINT lhip
	{
		OFFSET 0.058581 -0.082280 -0.017664
		CHANNELS 3 Zrotation Yrotation Xrotation
		JOINT lknee
		{
			OFFSET 0.043451 -0.386469 0.008037
			CHANNELS 3 Zrotation Yrotation Xrotation
			JOINT lankle
			{
				OFFSET -0.014790 -0.426874 -0.037428
				CHANNELS 3 Zrotation Yrotation Xrotation
				JOINT ltoe
				{
					OFFSET 0.041054 -0.060286 0.122042
					CHANNELS 3 Zrotation Yrotation Xrotation
					End Site
					{
						OFFSET 0.000000 0.000000 0.000000
					}
				}
			}
		}
	}
	JOINT rhip
	{
		OFFSET -0.060310 -0.090513 -0.013543
		CHANNELS 3 Zrotation Yrotation Xrotation
		JOINT rknee
		{
			OFFSET -0.043257 -0.383688 -0.004843
			CHANNELS 3 Zrotation Yrotation Xrotation
			JOINT rankle
			{
				OFFSET 0.019056 -0.420046 -0.034562
				CHANNELS 3 Zrotation Yrotation Xrotation
				JOINT rtoe
				{
					OFFSET -0.034840 -0.062106 0.130323
					CHANNELS 3 Zrotation Yrotation Xrotation
					End Site
					{
						OFFSET 0.000000 0.000000 0.000000
					}
				}
			}
		}
	}
	JOINT lowerback
	{
		OFFSET 0.004439 0.124404 -0.038385
		CHANNELS 3 Zrotation Yrotation Xrotation
		JOINT upperback
		{
			OFFSET 0.004488 0.137956 0.026820
			CHANNELS 3 Zrotation Yrotation Xrotation
			JOINT chest
			{
				OFFSET -0.002265 0.056032 0.002855
				CHANNELS 3 Zrotation Yrotation Xrotation
				JOINT lowerneck
				{
					OFFSET -0.013390 0.211636 -0.033468
					CHANNELS 3 Zrotation Yrotation Xrotation
					JOINT upperneck
					{
						OFFSET 0.010113 0.088937 0.050410
						CHANNELS 3 Zrotation Yrotation Xrotation
						End Site
						{
							OFFSET 0.000000 0.000000 0.000000
						}
					}
				}
				JOINT lclavicle
				{
					OFFSET 0.071702 0.114000 -0.018898
					CHANNELS 3 Zrotation Yrotation Xrotation
					JOINT lshoulder
					{
						OFFSET 0.122921 0.045205 -0.019046
						CHANNELS 3 Zrotation Yrotation Xrotation
						JOINT lelbow
						{
							OFFSET 0.255332 -0.015649 -0.022946
							CHANNELS 3 Zrotation Yrotation Xrotation
							JOINT lwrist
							{
								OFFSET 0.265709 0.012698 -0.007375
								CHANNELS 3 Zrotation Yrotation Xrotation
								End Site
								{
									OFFSET 0.000000 0.000000 0.000000
								}
							}
						}
					}
				}
				JOINT rclavicle
				{
					OFFSET -0.082954 0.112472 -0.023707
					CHANNELS 3 Zrotation Yrotation Xrotation
					JOINT rshoulder
					{
						OFFSET -0.113228 0.046853 -0.008472
						CHANNELS 3 Zrotation Yrotation Xrotation
						JOINT relbow
						{
							OFFSET -0.260127 -0.014369 -0.031269
							CHANNELS 3 Zrotation Yrotation Xrotation
							JOINT rwrist
							{
								OFFSET -0.269108 0.006794 -0.006027
								CHANNELS 3 Zrotation Yrotation Xrotation
								End Site
								{
									OFFSET 0.000000 0.000000 0.000000
								}
							}
						}
					}
				}
			}
		}
	}
}
MOTION
Frames: 14
Frame Time: 0.033333
0.160234 0.775607 0.990617 -94.855819 -0.125805 78.333327 8.419102 -7.652069 -34.637881 -5.537140 14.182325 81.058264 3.328765 8.960005 -23.436481 0.000000 -0.000000 0.000000 2.662590 -2.022023 8.522290 2.520593 7.250826 9.870034 0.065638 -3.539660 -12.266444 0.000000 -0.000000 0.000000 -1.689852 9.064191 14.235823 3.604357 -4.525206 6.619068 0.256407 0.152297 6.657032 3.051745 1.262401 11.425738 5.223129 0.909379 17.037484 -22.682657 4.298571 3.712162 -65.879189 -2.858678 4.077401 12.373057 -26.313176 6.436730 -1.462931 -2.082909 -9.485842 20.941890 -3.512160 2.343699 62.684268 4.020635 8.012065 -21.974058 36.921670 -2.480702 10.393241 0.975650 -13.187358 
0.145334 0.775441 0.990097 -95.617151 -0.656289 78.341294 9.614302 -7.311106 -38.483838 -4.929349 14.968357 78.100581 3.580987 9.083510 -23.903207 0.000000 -0.000000 0.000000 2.058869 -2.064737 9.470517 2.403134 8.374417 10.119042 0.152821 -3.528551 -13.441441 0.000000 -0.000000 0.000000 -1.832566 9.937590 14.377602 3.296536 -4.421014 6.867715 0.012050 0.495177 6.674326 3.162039 1.798598 11.143752 5.269450 0.457244 17.203038 -22.809894 4.676354 3.609050 -65.553181 -1.775483 3.566097 12.304543 -25.150068 6.866615 -0.588341 -2.375109 -8.730285 21.094280 -2.773931 2.659185 62.411759 5.343855 8.154032 -22.078440 37.417170 -2.915958 8.740830 1.156188 -13.735846 
0.130349 0.774995 0.989168 -96.194402 -1.099932 78.400790 10.302021 -6.855617 -40.968807 -4.777226 15.177482 73.300060 3.699246 9.151654 -23.669968 0.000000 -0.000000 0.000000 1.386966 -2.484847 10.261349 2.274555 8.914968 10.659123 0.133649 -2.944966 -14.684854 0.000000 -0.000000 0.000000 -2.073745 10.564740 14.663978 2.997128 -4.289714 6.812905 -0.061174 0.772431 6.658120 3.220122 1.938331 11.387926 4.835700 0.172207 17.346357 -22.825561 5.145597 3.602098 -65.455474 -0.873428 3.046891 12.413892 -24.029095 7.065775 -1.051977 -2.205220 -8.644809 21.024454 -2.396590 2.519308 62.121399 6.507038 8.207135 -21.357417 37.772980 -2.200680 9.202343 1.598648 -13.629424 
0.114615 0.774492 0.987901 -96.594457 -1.322929 78.347165 10.575504 -6.393708 -42.034936 -5.419948 14.561967 67.478502 3.735088 8.823724 -23.091921 0.000000 -0.000000 0.000000 1.041866 -2.737762 11.269948 2.072489 9.420576 11.196612 -0.115595 -2.774693 -16.109554 0.000000 -0.000000 0.000000 -2.190023 10.975095 14.871544 2.747048 -4.145782 7.020970 -0.048002 1.065427 6.662009 3.176502 2.377935 11.288775 4.802589 -0.194076 17.413514 -22.853555 5.374890 3.444210 -65.409874 -0.163655 2.557677 12.545422 -23.153716 7.102541 -1.426689 -1.903355 -8.941202 20.946709 -1.932410 2.495556 61.986620 7.632794 8.274084 -20.918498 38.380209 -1.373909 9.161026 1.771993 -13.394694 
0.098314 0.773400 0.986456 -96.913178 -1.467533 78.275683 10.353581 -6.100690 -41.975735 -6.420854 13.234848 61.826414 3.772035 8.558937 -22.123909 0.000000 -0.000000 0.000000 0.514598 -3.119960 12.485743 2.090405 9.972597 11.301603 -0.175096 -2.548039 -17.010905 0.000000 -0.000000 0.000000 -2.165299 11.313713 15.183593 2.404923 -4.001911 7.236667 -0.123819 1.280863 6.536896 3.229941 2.736585 11.316776 4.706479 -0.441277 17.410925 -22.850446 5.485292 3.142706 -65.228343 0.701959 2.335256 12.622789 -22.543643 6.797283 -1.627367 -1.842645 -9.215989 21.023630 -1.200520 2.447875 61.742789 8.218183 8.467403 -20.384553 39.051202 -0.968274 9.779873 1.820318 -12.853839 
0.081026 0.772340 0.984553 -97.258925 -1.383150 78.388498 10.232178 -5.916614 -41.171384 -7.082844 12.217448 57.000320 3.541984 8.288017 -20.578206 0.000000 -0.000000 0.000000 0.320003 -3.292620 13.305989 2.077668 10.179731 11.941144 -0.238591 -2.375021 -18.164627 0.000000 -0.000000 0.000000 -2.163213 11.614263 14.886301 2.285314 -3.692399 8.036910 -0.218852 1.481303 6.328246 3.444644 2.781697 10.966231 4.503010 -0.825701 17.657364 -23.014446 5.477751 2.994120 -64.843602 1.190957 2.165883 12.736379 -22.575474 6.371191 -2.077506 -1.789193 -9.169916 21.158753 -0.659575 2.330673 61.583880 8.745068 8.657354 -20.132963 40.065164 -0.677895 10.742153 2.160472 -13.058716 
0.067273 0.771214 0.982733 -97.387255 -1.325854 78.789919 10.106021 -5.971286 -40.622053 -7.547025 11.569244 54.240957 3.149607 7.699398 -18.711536 0.000000 -0.000000 0.000000 0.170920 -3.264437 13.814865 2.050506 10.271262 12.073564 -0.362427 -2.471238 -18.770539 0.000000 -0.000000 0.000000 -2.263697 11.740430 14.467549 2.186440 -3.525417 8.202316 -0.330187 1.618673 6.215033 3.585321 3.046915 10.731523 4.204524 -1.124738 18.024359 -22.883180 5.816532 2.889497 -64.766549 1.379004 2.217267 12.793041 -22.525578 6.460103 -1.983322 -1.697155 -9.277815 21.236897 -0.594736 2.245902 61.643762 9.086150 9.039726 -19.628754 40.799798 -0.115701 10.597490 2.475730 -13.283637 
0.048710 0.769133 0.980866 -97.593429 -1.316943 79.485971 9.610412 -6.162824 -39.448447 -8.065992 10.559293 51.355648 2.329953 6.656696 -15.875095 0.000000 -0.000000 0.000000 -0.052460 -3.297004 14.135649 1.836326 10.202728 12.536684 -0.452757 -2.262809 -19.339524 0.000000 -0.000000 0.000000 -2.534351 11.969571 13.753245 2.042216 -3.267571 8.622700 -0.449552 1.911341 6.167834 3.779547 3.698292 10.416064 4.078438 -1.380301 17.798189 -22.862911 5.960282 2.036379 -64.392800 1.751088 2.667767 12.830037 -22.594569 5.849724 -1.977794 -1.792672 -9.050995 21.337934 -0.241415 1.878169 62.002639 8.909042 9.822433 -20.138663 41.796527 -0.537351 11.240784 2.076578 -13.345167 
0.029083 0.766848 0.979246 -97.987232 -1.239186 80.518535 9.007216 -6.596448 -37.827686 -8.469634 9.389359 49.147646 2.605752 6.132760 -14.259890 0.000000 -0.000000 0.000000 -0.132415 -3.083464 14.309807 1.719885 10.499345 12.770374 -0.543926 -2.474179 -19.332781 0.000000 -0.000000 0.000000 -2.781415 12.169112 12.811752 1.791696 -2.761901 8.590784 -0.635760 2.080303 6.004080 3.735633 3.558580 10.279200 4.082270 -1.456505 17.906884 -22.787061 6.234641 2.401038 -64.014875 1.510822 2.536500 13.011161 -23.458641 5.807841 -2.069620 -1.752099 -9.508494 21.258602 -0.163363 2.259946 62.472637 9.115167 10.195357 -19.846350 42.546768 0.375053 11.685620 2.702156 -13.718623 
0.009391 0.763663 0.978670 -98.160138 -1.230250 81.617730 7.572182 -6.243580 -36.701200 -8.098077 8.664723 48.553463 6.052148 8.358981 -17.687789 0.000000 -0.000000 0.000000 -0.597269 -3.587267 14.048185 1.655072 10.779303 13.663315 -0.032122 -2.791737 -19.139733 0.000000 -0.000000 0.000000 -3.054546 12.359520 12.507306 1.301823 -2.279804 7.217750 -0.742718 2.327364 6.484739 3.791537 2.981530 9.645483 4.269591 -1.691327 18.747417 -22.350030 6.419444 2.323640 -63.656020 1.232429 2.348526 12.489637 -24.312221 6.167836 -0.973082 -1.649311 -9.560961 20.951247 -0.191870 2.404259 63.151666 8.504626 10.480507 -19.535714 43.516168 0.729675 11.623190 2.846111 -13.595665 
-0.013381 0.759151 0.982749 -97.361734 -1.427255 83.374319 7.043809 -7.589756 -37.923174 -7.743993 9.340033 49.874383 5.686970 8.086791 -18.055289 0.000000 -0.000000 0.000000 -0.857608 -2.721575 13.563014 1.302353 9.972551 13.772345 1.288472 -2.596392 -16.333022 0.000000 -0.000000 0.000000 -4.007826 12.483491 12.360213 0.932749 -2.390113 6.450073 -0.868310 2.433756 6.209756 3.716170 2.640917 8.881298 4.791138 -1.670441 17.508399 -22.623819 6.142718 1.857654 -62.741494 0.500681 3.132047 12.882607 -25.379292 4.464590 -0.353419 -1.937499 -9.319275 21.169216 -0.477304 2.133853 63.366825 7.832336 11.612237 -19.541715 44.012865 0.437075 9.686231 2.583772 -12.988914 
-0.033547 0.755609 0.990102 -96.785381 -1.602743 84.276372 5.915426 -8.307447 -36.513270 -8.049897 8.663314 48.422830 6.969708 9.175408 -19.350137 0.000000 -0.000000 0.000000 -1.368339 -2.767999 13.646004 1.045803 10.033995 13.830485 2.636203 -2.799426 -12.404535 0.000000 -0.000000 0.000000 -4.858126 13.191306 12.091650 0.764215 -2.200764 6.285860 -0.825738 2.264878 6.190354 3.840094 1.622355 8.448970 5.518406 -2.081442 17.373452 -22.441574 5.322980 2.726783 -62.771785 -1.358247 3.250115 13.698295 -26.273965 3.373811 0.377646 -2.222667 -9.821130 20.903905 -0.480398 2.602881 63.843698 7.107988 11.728662 -19.799916 43.888969 0.686791 10.753497 3.102204 -13.087477 
-0.054095 0.751986 1.000915 -96.486855 -1.315240 85.138179 5.147834 -8.714909 -34.394501 -8.230121 7.802481 46.235813 7.209818 10.084964 -20.160236 0.000000 -0.000000 0.000000 -1.450612 -2.692007 13.261893 0.896638 9.627436 14.502017 4.681807 -2.117481 -7.008900 0.000000 -0.000000 0.000000 -5.380230 13.441399 11.499845 0.617907 -1.826044 6.259339 -0.794430 2.307904 6.338520 4.278810 1.012817 8.152922 6.050296 -2.329197 17.076690 -22.177112 4.796602 2.314104 -63.146796 -2.651403 4.194999 14.441125 -27.126886 1.991369 1.428984 -2.307705 -10.325898 20.646047 -0.619701 2.303780 64.137520 6.134153 12.321312 -19.597886 43.039257 0.497617 10.636981 2.790851 -13.095301 
-0.073330 0.748459 1.014184 -95.763151 -0.875004 86.349707 4.528590 -8.904282 -32.401718 -8.179404 6.824539 43.163201 7.743101 10.160253 -20.134045 0.000000 -0.000000 0.000000 -1.401069 -2.957081 11.490084 0.829929 8.638158 16.301205 6.968657 -1.272872 -0.155038 0.000000 -0.000000 0.000000 -5.955746 12.900408 11.307910 0.449978 -1.782347 5.209214 -0.557278 2.225721 6.101759 4.106265 0.189875 8.543748 6.880629 -1.966998 16.873253 -22.165176 5.103158 2.676297 -63.177857 -3.477245 4.618499 14.564318 -29.891775 1.084982 1.528931 -2.504363 -10.680729 20.455662 -1.186432 2.630094 64.126295 5.367793 12.383246 -18.438266 42.308890 1.377427 11.012597 2.550912 -12.128131 
